<svg width="156" height="34" viewBox="0 0 156 34" fill="none" xmlns="http://www.w3.org/2000/svg">
<path d="M37.5379 1.41675C29.0092 1.41675 22.0953 8.39364 22.0953 17.0001C22.0953 25.6065 29.0092 32.5834 37.5379 32.5834C45.1896 32.5834 51.5416 26.9675 52.7669 19.5973H52.656C51.5132 24.0781 47.4824 27.389 42.6854 27.389C36.9996 27.389 32.3903 22.7377 32.3903 17.0001C32.3903 11.2624 36.9996 6.61119 42.6854 6.61119C47.4824 6.61119 51.5132 9.92205 52.656 14.4029H52.7669C51.5416 7.03269 45.1896 1.41675 37.5379 1.41675Z" fill="#A4BCFD"/>
<path d="M22.0953 17.0001C22.0953 8.39364 29.0092 1.41675 37.5379 1.41675C45.1896 1.41675 51.5415 7.03269 52.7669 14.4029H42.361C41.2182 9.92206 37.1874 6.61119 32.3903 6.61119C26.7046 6.61119 22.0953 11.2625 22.0953 17.0001Z" fill="#3538CD"/>
<path d="M22.0953 17.0002C22.0953 25.6066 29.0092 32.5835 37.5379 32.5835C45.1896 32.5835 51.5415 26.9676 52.7669 19.5974H42.361C41.2182 24.0782 37.1874 27.3891 32.3903 27.3891C26.7046 27.3891 22.0953 22.7378 22.0953 17.0002Z" fill="#3538CD"/>
<path d="M75.0483 14.5259C74.6086 11.3213 72.1658 9.46191 68.9972 9.46191C65.2632 9.46191 62.4504 12.2087 62.4504 16.8712C62.4504 21.5267 65.2283 24.2806 68.9972 24.2806C72.3961 24.2806 74.6505 22.062 75.0483 19.3082L72.438 19.2941C72.11 20.9844 70.742 21.9352 69.0321 21.9352C66.7149 21.9352 65.0538 20.1815 65.0538 16.8712C65.0538 13.6173 66.7009 11.8073 69.039 11.8073C70.7769 11.8073 72.1379 12.8003 72.438 14.5259H75.0483Z" fill="#101828"/>
<path d="M80.3928 24.3017C82.0749 24.3017 83.0799 23.5058 83.5406 22.5973H83.6243V24.0834H86.0532V16.8431C86.0532 13.9836 83.743 13.1243 81.698 13.1243C79.4436 13.1243 77.7127 14.1385 77.1544 16.1106L79.5134 16.4487C79.7647 15.7091 80.4766 15.0753 81.712 15.0753C82.8845 15.0753 83.5266 15.681 83.5266 16.7445V16.7867C83.5266 17.5192 82.7659 17.5544 80.8744 17.7587C78.7945 17.9841 76.8054 18.6109 76.8054 21.0478C76.8054 23.1748 78.3479 24.3017 80.3928 24.3017ZM81.0489 22.4282C79.995 22.4282 79.2412 21.9423 79.2412 21.0055C79.2412 20.0265 80.0857 19.618 81.2164 19.4561C81.8795 19.3645 83.2056 19.1955 83.5336 18.9278V20.2026C83.5336 21.407 82.5704 22.4282 81.0489 22.4282Z" fill="#101828"/>
<path d="M93.9469 13.2652H91.8321V10.6733H89.3056V13.2652H87.7841V15.2372H89.3056V21.252C89.2916 23.2875 90.7573 24.2876 92.6557 24.2313C93.3746 24.2101 93.8701 24.0693 94.1423 23.9777L93.7166 21.9845C93.577 22.0197 93.2908 22.0831 92.9768 22.0831C92.3416 22.0831 91.8321 21.8577 91.8321 20.8295V15.2372H93.9469V13.2652Z" fill="#101828"/>
<path d="M99.1449 24.3017C100.827 24.3017 101.832 23.5058 102.293 22.5973H102.376V24.0834H104.805V16.8431C104.805 13.9836 102.495 13.1243 100.45 13.1243C98.1957 13.1243 96.4647 14.1385 95.9064 16.1106L98.2654 16.4487C98.5167 15.7091 99.2286 15.0753 100.464 15.0753C101.637 15.0753 102.279 15.681 102.279 16.7445V16.7867C102.279 17.5192 101.518 17.5544 99.6264 17.7587C97.5466 17.9841 95.5574 18.6109 95.5574 21.0478C95.5574 23.1748 97.0999 24.3017 99.1449 24.3017ZM99.8009 22.4282C98.747 22.4282 97.9932 21.9423 97.9932 21.0055C97.9932 20.0265 98.8378 19.618 99.9684 19.4561C100.631 19.3645 101.958 19.1955 102.286 18.9278V20.2026C102.286 21.407 101.322 22.4282 99.8009 22.4282Z" fill="#101828"/>
<path d="M109.872 9.65912H107.346V24.0834H109.872V9.65912Z" fill="#101828"/>
<path d="M117.147 24.2947C120.287 24.2947 122.283 22.062 122.283 18.7165C122.283 15.364 120.287 13.1243 117.147 13.1243C114.006 13.1243 112.01 15.364 112.01 18.7165C112.01 22.062 114.006 24.2947 117.147 24.2947ZM117.161 22.2522C115.423 22.2522 114.571 20.6886 114.571 18.7095C114.571 16.7304 115.423 15.1457 117.161 15.1457C118.871 15.1457 119.722 16.7304 119.722 18.7095C119.722 20.6886 118.871 22.2522 117.161 22.2522Z" fill="#101828"/>
<path d="M129.09 28.3656C131.987 28.3656 134.122 27.0274 134.122 24.2594V13.2652H131.631V15.0541H131.491C131.107 14.2723 130.305 13.1243 128.413 13.1243C125.935 13.1243 123.988 15.0823 123.988 18.6391C123.988 22.1676 125.935 23.9284 128.406 23.9284C130.242 23.9284 131.1 22.9353 131.491 22.1395H131.617V24.189C131.617 25.7807 130.57 26.4358 129.132 26.4358C127.611 26.4358 126.94 25.7103 126.633 25.0764L124.358 25.6328C124.819 27.1471 126.361 28.3656 129.09 28.3656ZM129.111 21.9282C127.443 21.9282 126.564 20.6182 126.564 18.625C126.564 16.66 127.429 15.2161 129.111 15.2161C130.737 15.2161 131.631 16.5754 131.631 18.625C131.631 20.6886 130.723 21.9282 129.111 21.9282Z" fill="#101828"/>
</svg>
