<svg width="156" height="34" viewBox="0 0 156 34" fill="none" xmlns="http://www.w3.org/2000/svg">
<path d="M24.5536 23.6787C30.6455 23.6787 35.584 18.6952 35.584 12.5477C35.584 11.851 35.5205 11.1693 35.3992 10.508C34.7439 10.3855 34.0683 10.3215 33.3779 10.3215C27.286 10.3215 22.3475 15.305 22.3475 21.4525C22.3475 22.1492 22.411 22.831 22.5323 23.4922C23.1876 23.6147 23.8632 23.6787 24.5536 23.6787Z" fill="#175CD3"/>
<path fill-rule="evenodd" clip-rule="evenodd" d="M22.5323 23.4922C17.4057 22.5341 13.5232 17.9984 13.5232 12.5477C13.5232 6.40024 18.4617 1.41675 24.5536 1.41675C29.9551 1.41675 34.4497 5.33466 35.3992 10.508C34.7439 10.3855 34.0683 10.3215 33.3779 10.3215C27.286 10.3215 22.3475 15.305 22.3475 21.4525C22.3475 22.1492 22.4109 22.8309 22.5323 23.4922Z" fill="#1570EF"/>
<path fill-rule="evenodd" clip-rule="evenodd" d="M24.5535 23.6785C30.6454 23.6785 35.5839 18.695 35.5839 12.5475C35.5839 11.8508 35.5205 11.1691 35.3991 10.5078C40.5257 11.4659 44.4082 16.0015 44.4082 21.4523C44.4082 27.5998 39.4697 32.5832 33.3778 32.5832C27.9763 32.5832 23.4816 28.6653 22.5322 23.492C23.1875 23.6145 23.8631 23.6785 24.5535 23.6785Z" fill="#2E90FA"/>
<path d="M65.6262 20.4737C65.2331 21.7563 64.5452 22.7149 63.5625 23.3496C62.5798 23.971 61.4333 24.2817 60.1231 24.2817C58.839 24.2817 57.7253 24.0107 56.7819 23.4686C55.8516 22.9265 55.1309 22.153 54.6199 21.1481C54.122 20.1432 53.873 18.94 53.873 17.5384C53.873 16.1369 54.1286 14.9336 54.6396 13.9287C55.1506 12.9239 55.8712 12.1504 56.8015 11.6082C57.7318 11.0661 58.8259 10.7951 60.0837 10.7951C61.4071 10.7951 62.5405 11.0794 63.4839 11.6479C64.4404 12.2032 65.0955 13.0495 65.4493 14.1866L62.9926 15.2377C62.7698 14.4444 62.4291 13.8825 61.9705 13.5519C61.5119 13.2081 60.9223 13.0362 60.2017 13.0362C59.1272 13.0362 58.269 13.4263 57.627 14.2064C56.9981 14.9733 56.6836 16.084 56.6836 17.5384C56.6836 18.9796 56.9849 20.0903 57.5877 20.8704C58.1904 21.6505 59.0617 22.0406 60.2017 22.0406C60.9092 22.0406 61.5185 21.8489 62.0295 21.4654C62.5536 21.082 62.9205 20.5002 63.1301 19.7201L65.6262 20.4737Z" fill="#101828"/>
<path d="M69.0188 12.7387C67.9051 12.7387 67.3482 12.2561 67.3482 11.2909C67.3482 10.3125 67.9051 9.82324 69.0188 9.82324C70.1326 9.82324 70.6894 10.3125 70.6894 11.2909C70.6894 12.2561 70.1326 12.7387 69.0188 12.7387ZM70.3553 14.1667V24.0834H67.6627V14.1667H70.3553Z" fill="#101828"/>
<path d="M73.2096 24.0834V14.1667H75.5485L75.7253 16.1104C75.9743 15.4361 76.3477 14.9138 76.8456 14.5436C77.3566 14.1601 77.9987 13.9684 78.7717 13.9684C79.2303 13.9684 79.5841 14.0411 79.8331 14.1866L79.5186 16.4674C79.3876 16.4277 79.2238 16.3947 79.0272 16.3682C78.8438 16.3286 78.6014 16.3087 78.3 16.3087C77.8939 16.3087 77.5073 16.4079 77.1404 16.6062C76.7867 16.7914 76.4919 17.0822 76.256 17.4789C76.0202 17.8624 75.9022 18.3516 75.9022 18.9466V24.0834H73.2096Z" fill="#101828"/>
<path d="M85.7707 13.9684C87.081 13.9684 88.0965 14.2527 88.8171 14.8212C89.5509 15.3898 90.0357 16.0774 90.2715 16.8839L87.7558 17.7962C87.4938 16.593 86.8452 15.9914 85.8101 15.9914C85.0632 15.9914 84.4801 16.2559 84.0608 16.7847C83.6547 17.3136 83.4516 18.1004 83.4516 19.1449C83.4516 20.2027 83.6612 20.9894 84.0805 21.5051C84.5129 22.0075 85.096 22.2587 85.8297 22.2587C86.9697 22.2587 87.651 21.6704 87.8737 20.4936L90.3108 21.2869C90.0881 22.1728 89.5902 22.8934 88.8171 23.4487C88.0572 24.0041 87.0679 24.2817 85.8494 24.2817C84.8274 24.2817 83.9298 24.0768 83.1567 23.6669C82.3968 23.257 81.8072 22.6686 81.3879 21.9017C80.9686 21.1349 80.7589 20.2093 80.7589 19.1251C80.7589 18.0409 80.9686 17.1153 81.3879 16.3484C81.8203 15.5815 82.4099 14.9931 83.1567 14.5832C83.9167 14.1734 84.788 13.9684 85.7707 13.9684Z" fill="#101828"/>
<path d="M96.8842 13.9684C97.8669 13.9684 98.7383 14.1734 99.4982 14.5832C100.258 14.9931 100.848 15.5815 101.267 16.3484C101.699 17.1153 101.916 18.0409 101.916 19.1251C101.916 20.2093 101.699 21.1349 101.267 21.9017C100.848 22.6686 100.258 23.257 99.4982 23.6669C98.7383 24.0768 97.8669 24.2817 96.8842 24.2817C95.8884 24.2817 95.0105 24.0768 94.2506 23.6669C93.5037 23.257 92.9141 22.6686 92.4817 21.9017C92.0624 21.1349 91.8528 20.2093 91.8528 19.1251C91.8528 18.0409 92.0624 17.1153 92.4817 16.3484C92.9141 15.5815 93.5037 14.9931 94.2506 14.5832C95.0105 14.1734 95.8884 13.9684 96.8842 13.9684ZM96.8842 15.9914C96.1505 15.9914 95.574 16.2559 95.1547 16.7847C94.7485 17.3004 94.5454 18.0805 94.5454 19.1251C94.5454 20.1696 94.7485 20.9564 95.1547 21.4852C95.574 22.0009 96.1505 22.2587 96.8842 22.2587C97.6049 22.2587 98.1683 22.0009 98.5745 21.4852C98.9938 20.9564 99.2034 20.1696 99.2034 19.1251C99.2034 18.0805 98.9938 17.3004 98.5745 16.7847C98.1683 16.2559 97.6049 15.9914 96.8842 15.9914Z" fill="#101828"/>
<path d="M108.65 13.9684C109.633 13.9684 110.504 14.1734 111.264 14.5832C112.024 14.9931 112.613 15.5815 113.033 16.3484C113.465 17.1153 113.681 18.0409 113.681 19.1251C113.681 20.2093 113.465 21.1349 113.033 21.9017C112.613 22.6686 112.024 23.257 111.264 23.6669C110.504 24.0768 109.633 24.2817 108.65 24.2817C107.654 24.2817 106.776 24.0768 106.016 23.6669C105.269 23.257 104.68 22.6686 104.247 21.9017C103.828 21.1349 103.618 20.2093 103.618 19.1251C103.618 18.0409 103.828 17.1153 104.247 16.3484C104.68 15.5815 105.269 14.9931 106.016 14.5832C106.776 14.1734 107.654 13.9684 108.65 13.9684ZM108.65 15.9914C107.916 15.9914 107.34 16.2559 106.92 16.7847C106.514 17.3004 106.311 18.0805 106.311 19.1251C106.311 20.1696 106.514 20.9564 106.92 21.4852C107.34 22.0009 107.916 22.2587 108.65 22.2587C109.37 22.2587 109.934 22.0009 110.34 21.4852C110.759 20.9564 110.969 20.1696 110.969 19.1251C110.969 18.0805 110.759 17.3004 110.34 16.7847C109.934 16.2559 109.37 15.9914 108.65 15.9914Z" fill="#101828"/>
<path d="M118.588 9.82324V21.0291C118.588 21.4919 118.666 21.8158 118.823 22.0009C118.981 22.186 119.243 22.2786 119.61 22.2786C119.832 22.2786 120.016 22.2654 120.16 22.2389C120.304 22.2125 120.487 22.1596 120.71 22.0802L120.474 23.8652C120.252 23.9975 119.97 24.0966 119.629 24.1627C119.302 24.2421 118.974 24.2817 118.647 24.2817C117.69 24.2817 116.989 24.0504 116.544 23.5876C116.111 23.1116 115.895 22.3579 115.895 21.3266V9.82324H118.588Z" fill="#101828"/>
<path d="M126.77 24.2817C125.224 24.2817 123.986 23.8322 123.056 22.9331C122.125 22.0207 121.66 20.7514 121.66 19.1251C121.66 18.0409 121.87 17.1153 122.289 16.3484C122.708 15.5815 123.292 14.9931 124.038 14.5832C124.798 14.1734 125.663 13.9684 126.633 13.9684C127.629 13.9684 128.474 14.1734 129.168 14.5832C129.863 14.9799 130.393 15.5286 130.76 16.2294C131.127 16.917 131.31 17.7037 131.31 18.5896C131.31 18.854 131.304 19.1052 131.291 19.3432C131.278 19.5812 131.258 19.7928 131.232 19.9779H124.294C124.399 20.7448 124.661 21.32 125.08 21.7034C125.512 22.0736 126.069 22.2587 126.751 22.2587C127.327 22.2587 127.792 22.1464 128.146 21.9216C128.5 21.6968 128.775 21.3861 128.972 20.9894L131.114 21.8224C130.799 22.6025 130.249 23.2107 129.463 23.6471C128.677 24.0702 127.779 24.2817 126.77 24.2817ZM126.613 15.9716C125.342 15.9716 124.576 16.679 124.314 18.0937H128.736C128.657 17.4062 128.434 16.8839 128.067 16.5269C127.714 16.1567 127.229 15.9716 126.613 15.9716Z" fill="#101828"/>
<path d="M137.523 24.2817C136.527 24.2817 135.617 24.1032 134.791 23.7462C133.979 23.3892 133.317 22.8868 132.806 22.2389L134.359 20.6522C134.673 21.1282 135.093 21.5183 135.617 21.8224C136.141 22.1265 136.763 22.2786 137.484 22.2786C137.995 22.2786 138.401 22.2059 138.702 22.0604C139.017 21.9017 139.174 21.6571 139.174 21.3266C139.174 21.115 139.102 20.9365 138.958 20.7911C138.814 20.6324 138.525 20.5068 138.093 20.4142L136.364 20.0572C135.224 19.8192 134.411 19.4622 133.926 18.9862C133.455 18.497 133.219 17.869 133.219 17.1021C133.219 16.56 133.376 16.0509 133.691 15.5749C134.018 15.0989 134.503 14.7155 135.145 14.4246C135.787 14.1205 136.586 13.9684 137.543 13.9684C139.534 13.9684 140.963 14.5832 141.827 15.8129L140.216 17.3996C139.927 16.9368 139.547 16.5864 139.076 16.3484C138.617 16.0972 138.132 15.9716 137.621 15.9716C136.468 15.9716 135.892 16.2955 135.892 16.9434C135.892 17.155 135.984 17.3401 136.167 17.4987C136.35 17.6442 136.685 17.7698 137.169 17.8756L139.174 18.2921C140.144 18.4904 140.838 18.8276 141.257 19.3036C141.677 19.7664 141.886 20.3283 141.886 20.9894C141.886 21.9414 141.506 22.7281 140.746 23.3496C140 23.971 138.925 24.2817 137.523 24.2817Z" fill="#101828"/>
</svg>
