<svg width="156" height="34" viewBox="0 0 156 34" fill="none" xmlns="http://www.w3.org/2000/svg">
<path d="M33.9445 17.0001C31.4495 19.8131 27.8238 21.5834 23.7883 21.5834C19.7528 21.5834 16.127 19.8131 13.6321 17.0001C16.127 14.1871 19.7528 12.4167 23.7883 12.4167C27.8238 12.4167 31.4495 14.1871 33.9445 17.0001Z" fill="white"/>
<path fill-rule="evenodd" clip-rule="evenodd" d="M10.1625 26.1667C10.1625 18.5728 16.2629 12.4167 23.7882 12.4167C19.7527 12.4167 16.127 14.1871 13.632 17.0001C16.127 19.8131 19.7528 21.5834 23.7882 21.5834C27.8237 21.5834 31.4495 19.8131 33.9444 17.0001C36.102 19.4327 37.414 22.6451 37.414 26.1667V31.3612C37.414 32.0362 36.8717 32.5834 36.2028 32.5834H11.3737C10.7047 32.5834 10.1625 32.0362 10.1625 31.3612V26.1667ZM33.9444 17.0001C33.9444 17.0001 33.9444 17.0001 33.9444 17.0001V17.0001Z" fill="#7CD4FD"/>
<path fill-rule="evenodd" clip-rule="evenodd" d="M18.6774 20.5834C16.7318 19.7885 15.0096 18.5532 13.632 17.0001C16.127 14.1871 19.7528 12.4167 23.7882 12.4167C27.8237 12.4167 31.4495 14.1871 33.9444 17.0001C33.9444 17.0001 33.9444 17.0001 33.9444 17.0001C36.102 14.5674 37.414 11.355 37.414 7.83342V2.63897C37.414 1.96396 36.8717 1.41675 36.2028 1.41675L11.3737 1.41675C10.7047 1.41675 10.1625 1.96396 10.1625 2.63897L10.1625 7.83341C10.1625 13.6034 13.6845 18.5434 18.6774 20.5834Z" fill="#0BA5EC"/>
<path d="M58.6969 10.2397V24.0834H55.9453V18.1929H50.0687V24.0834H47.3171V10.2397H50.0687V15.9319H55.9453V10.2397H58.6969Z" fill="#101828"/>
<path d="M66.2401 24.2619C65.1918 24.2619 64.2484 24.0305 63.4099 23.5677C62.5713 23.0917 61.9096 22.424 61.4248 21.5646C60.9531 20.7051 60.7172 19.7135 60.7172 18.5896C60.7172 17.4657 60.9596 16.474 61.4444 15.6146C61.9424 14.7551 62.6171 14.094 63.4688 13.6312C64.3205 13.1552 65.2704 12.9172 66.3187 12.9172C67.3669 12.9172 68.3168 13.1552 69.1685 13.6312C70.0202 14.094 70.6884 14.7551 71.1732 15.6146C71.6711 16.474 71.9201 17.4657 71.9201 18.5896C71.9201 19.7135 71.6646 20.7051 71.1536 21.5646C70.6557 22.424 69.9743 23.0917 69.1096 23.5677C68.2579 24.0305 67.3014 24.2619 66.2401 24.2619ZM66.2401 21.8422C66.738 21.8422 67.2031 21.7232 67.6355 21.4852C68.081 21.234 68.4348 20.8638 68.6968 20.3746C68.9589 19.8853 69.0899 19.2903 69.0899 18.5896C69.0899 17.545 68.8147 16.7451 68.2644 16.1897C67.7272 15.6212 67.0655 15.3369 66.2794 15.3369C65.4932 15.3369 64.8315 15.6212 64.2943 16.1897C63.7702 16.7451 63.5081 17.545 63.5081 18.5896C63.5081 19.6341 63.7636 20.4407 64.2746 21.0092C64.7988 21.5646 65.4539 21.8422 66.2401 21.8422Z" fill="#101828"/>
<path d="M84.2176 13.0957V24.0834H81.4463V22.6951C81.0926 23.1711 80.6274 23.5479 80.0509 23.8256C79.4875 24.09 78.8717 24.2222 78.2034 24.2222C77.3517 24.2222 76.5983 24.0437 75.9432 23.6867C75.2881 23.3165 74.7705 22.781 74.3905 22.0802C74.0236 21.3662 73.8402 20.52 73.8402 19.5416V13.0957H76.5918V19.1449C76.5918 20.0176 76.808 20.6919 77.2404 21.1679C77.6728 21.6307 78.2624 21.8621 79.0092 21.8621C79.7692 21.8621 80.3654 21.6307 80.7978 21.1679C81.2301 20.6919 81.4463 20.0176 81.4463 19.1449V13.0957H84.2176Z" fill="#101828"/>
<path d="M89.684 14.8014C90.0378 14.2196 90.4964 13.7635 91.0598 13.4329C91.6363 13.1023 92.2915 12.9371 93.0252 12.9371V15.8526H92.298C91.4332 15.8526 90.7781 16.0575 90.3326 16.4674C89.9002 16.8773 89.684 17.5913 89.684 18.6094V24.0834H86.9324V13.0957H89.684V14.8014Z" fill="#101828"/>
<path d="M99.1435 12.9172C99.9559 12.9172 100.67 13.0825 101.286 13.4131C101.902 13.7304 102.386 14.1469 102.74 14.6626V13.0957H105.511V24.1627C105.511 25.1808 105.308 26.0866 104.902 26.8799C104.496 27.6865 103.887 28.3211 103.074 28.7839C102.262 29.2599 101.279 29.4979 100.126 29.4979C98.5801 29.4979 97.3091 29.1343 96.3133 28.4071C95.3306 27.6798 94.7737 26.6882 94.6427 25.4321H97.3746C97.5187 25.9345 97.8267 26.3312 98.2984 26.6221C98.7832 26.9262 99.3662 27.0782 100.048 27.0782C100.847 27.0782 101.495 26.8336 101.993 26.3444C102.491 25.8684 102.74 25.1412 102.74 24.1627V22.4571C102.386 22.9727 101.895 23.4025 101.266 23.7462C100.65 24.09 99.9428 24.2619 99.1435 24.2619C98.2263 24.2619 97.3877 24.0239 96.6278 23.5479C95.8678 23.0719 95.2651 22.4042 94.8196 21.5447C94.3872 20.6721 94.171 19.6738 94.171 18.5499C94.171 17.4392 94.3872 16.4542 94.8196 15.5947C95.2651 14.7353 95.8612 14.0742 96.6081 13.6114C97.3681 13.1486 98.2132 12.9172 99.1435 12.9172ZM102.74 18.5896C102.74 17.9152 102.609 17.3401 102.347 16.8641C102.085 16.3748 101.731 16.0046 101.286 15.7534C100.84 15.489 100.362 15.3567 99.851 15.3567C99.34 15.3567 98.8683 15.4823 98.4359 15.7336C98.0035 15.9848 97.6498 16.355 97.3746 16.8442C97.1126 17.3202 96.9815 17.8888 96.9815 18.5499C96.9815 19.211 97.1126 19.7928 97.3746 20.2952C97.6498 20.7845 98.0035 21.1613 98.4359 21.4257C98.8814 21.6902 99.3531 21.8224 99.851 21.8224C100.362 21.8224 100.84 21.6968 101.286 21.4456C101.731 21.1811 102.085 20.8109 102.347 20.3349C102.609 19.8457 102.74 19.2639 102.74 18.5896Z" fill="#101828"/>
<path d="M110.95 9.40674V24.0834H108.199V9.40674H110.95Z" fill="#101828"/>
<path d="M112.961 18.5499C112.961 17.4392 113.178 16.4542 113.61 15.5947C114.055 14.7353 114.652 14.0742 115.399 13.6114C116.158 13.1486 117.004 12.9172 117.934 12.9172C118.746 12.9172 119.454 13.0825 120.057 13.4131C120.672 13.7436 121.164 14.1601 121.531 14.6626V13.0957H124.302V24.0834H121.531V22.4769C121.177 22.9926 120.685 23.4223 120.057 23.7661C119.441 24.0966 118.727 24.2619 117.914 24.2619C116.997 24.2619 116.158 24.0239 115.399 23.5479C114.652 23.0719 114.055 22.4042 113.61 21.5447C113.178 20.6721 112.961 19.6738 112.961 18.5499ZM121.531 18.5896C121.531 17.9152 121.4 17.3401 121.138 16.8641C120.875 16.3748 120.522 16.0046 120.076 15.7534C119.631 15.489 119.152 15.3567 118.641 15.3567C118.13 15.3567 117.659 15.4823 117.226 15.7336C116.794 15.9848 116.44 16.355 116.165 16.8442C115.903 17.3202 115.772 17.8888 115.772 18.5499C115.772 19.211 115.903 19.7928 116.165 20.2952C116.44 20.7845 116.794 21.1613 117.226 21.4257C117.672 21.6902 118.144 21.8224 118.641 21.8224C119.152 21.8224 119.631 21.6968 120.076 21.4456C120.522 21.1811 120.875 20.8109 121.138 20.3349C121.4 19.8457 121.531 19.2639 121.531 18.5896Z" fill="#101828"/>
<path d="M131.156 24.2619C130.265 24.2619 129.466 24.1032 128.758 23.7859C128.051 23.4553 127.487 23.0124 127.068 22.4571C126.662 21.9017 126.439 21.2869 126.4 20.6126H129.171C129.223 21.0357 129.426 21.3861 129.78 21.6637C130.147 21.9414 130.599 22.0802 131.136 22.0802C131.66 22.0802 132.067 21.9745 132.355 21.7629C132.656 21.5513 132.807 21.2803 132.807 20.9497C132.807 20.5927 132.623 20.3283 132.257 20.1564C131.903 19.9713 131.333 19.773 130.547 19.5614C129.734 19.3631 129.066 19.1581 128.542 18.9466C128.031 18.735 127.585 18.4111 127.205 17.9747C126.839 17.5384 126.655 16.95 126.655 16.2096C126.655 15.6013 126.825 15.046 127.166 14.5436C127.52 14.0411 128.018 13.6445 128.66 13.3536C129.315 13.0627 130.081 12.9172 130.959 12.9172C132.257 12.9172 133.292 13.2478 134.065 13.9089C134.838 14.5568 135.264 15.4361 135.342 16.5467H132.709C132.669 16.1104 132.486 15.7666 132.158 15.5154C131.844 15.251 131.418 15.1187 130.881 15.1187C130.383 15.1187 129.996 15.2113 129.721 15.3964C129.459 15.5815 129.328 15.8393 129.328 16.1699C129.328 16.5401 129.511 16.8244 129.878 17.0227C130.245 17.2078 130.815 17.3996 131.588 17.5979C132.374 17.7962 133.023 18.0012 133.534 18.2127C134.045 18.4243 134.484 18.7548 134.851 19.2044C135.231 19.6407 135.427 20.2225 135.44 20.9497C135.44 21.5844 135.264 22.153 134.91 22.6554C134.569 23.1578 134.071 23.5545 133.416 23.8454C132.774 24.1231 132.021 24.2619 131.156 24.2619Z" fill="#101828"/>
<path d="M141.866 24.2619C140.975 24.2619 140.176 24.1032 139.468 23.7859C138.76 23.4553 138.197 23.0124 137.778 22.4571C137.372 21.9017 137.149 21.2869 137.11 20.6126H139.881C139.933 21.0357 140.136 21.3861 140.49 21.6637C140.857 21.9414 141.309 22.0802 141.846 22.0802C142.37 22.0802 142.776 21.9745 143.065 21.7629C143.366 21.5513 143.517 21.2803 143.517 20.9497C143.517 20.5927 143.333 20.3283 142.966 20.1564C142.613 19.9713 142.043 19.773 141.257 19.5614C140.444 19.3631 139.776 19.1581 139.252 18.9466C138.741 18.735 138.295 18.4111 137.915 17.9747C137.548 17.5384 137.365 16.95 137.365 16.2096C137.365 15.6013 137.535 15.046 137.876 14.5436C138.23 14.0411 138.728 13.6445 139.37 13.3536C140.025 13.0627 140.791 12.9172 141.669 12.9172C142.966 12.9172 144.002 13.2478 144.775 13.9089C145.548 14.5568 145.974 15.4361 146.052 16.5467H143.418C143.379 16.1104 143.196 15.7666 142.868 15.5154C142.554 15.251 142.128 15.1187 141.591 15.1187C141.093 15.1187 140.706 15.2113 140.431 15.3964C140.169 15.5815 140.038 15.8393 140.038 16.1699C140.038 16.5401 140.221 16.8244 140.588 17.0227C140.955 17.2078 141.525 17.3996 142.298 17.5979C143.084 17.7962 143.733 18.0012 144.244 18.2127C144.755 18.4243 145.194 18.7548 145.561 19.2044C145.941 19.6407 146.137 20.2225 146.15 20.9497C146.15 21.5844 145.974 22.153 145.62 22.6554C145.279 23.1578 144.781 23.5545 144.126 23.8454C143.484 24.1231 142.731 24.2619 141.866 24.2619Z" fill="#101828"/>
</svg>
