<svg width="145" height="38" viewBox="0 0 145 38" fill="none" xmlns="http://www.w3.org/2000/svg">
<g filter="url(#filter0_dd_18_165)">
<g clip-path="url(#clip0_18_165)">
<rect x="3" y="2" width="38.8376" height="32" rx="8" fill="white"/>
<rect x="3" y="2" width="38.8376" height="32" rx="8" fill="url(#paint0_linear_18_165)"/>
<path fill-rule="evenodd" clip-rule="evenodd" d="M22.4188 4.03885C13.0607 4.03885 5.47445 10.2895 5.47445 18C5.47445 25.7106 13.0607 31.9612 22.4188 31.9612C31.7769 31.9612 39.3631 25.7106 39.3631 18C39.3631 10.2895 31.7769 4.03885 22.4188 4.03885ZM5.38019 18C5.38019 10.2466 13.0086 3.96118 22.4188 3.96118C31.8289 3.96118 39.4574 10.2466 39.4574 18C39.4574 25.7535 31.8289 32.0389 22.4188 32.0389C13.0086 32.0389 5.38019 25.7535 5.38019 18Z" fill="#D0D5DD"/>
<path fill-rule="evenodd" clip-rule="evenodd" d="M22.4188 14.0779C19.7897 14.0779 17.6584 15.834 17.6584 18.0002C17.6584 20.1665 19.7897 21.9226 22.4188 21.9226C25.048 21.9226 27.1793 20.1665 27.1793 18.0002C27.1793 15.834 25.048 14.0779 22.4188 14.0779ZM17.5641 18.0002C17.5641 15.7911 19.7377 14.0002 22.4188 14.0002C25.1 14.0002 27.2736 15.7911 27.2736 18.0002C27.2736 20.2094 25.1 22.0002 22.4188 22.0002C19.7377 22.0002 17.5641 20.2094 17.5641 18.0002Z" fill="#D0D5DD"/>
<path fill-rule="evenodd" clip-rule="evenodd" d="M22.4188 15.3201C20.6227 15.3201 19.1667 16.5198 19.1667 17.9997C19.1667 19.4796 20.6227 20.6793 22.4188 20.6793C24.215 20.6793 25.671 19.4796 25.671 17.9997C25.671 16.5198 24.215 15.3201 22.4188 15.3201ZM19.0724 17.9997C19.0724 16.4769 20.5706 15.2424 22.4188 15.2424C24.267 15.2424 25.7653 16.4769 25.7653 17.9997C25.7653 19.5225 24.267 20.757 22.4188 20.757C20.5706 20.757 19.0724 19.5225 19.0724 17.9997Z" fill="#D0D5DD"/>
<path d="M22.3716 2H22.4659V34H22.3716V2Z" fill="#D0D5DD"/>
<path d="M41.8376 17.9609L41.8376 18.0386L2.99998 18.0386L2.99998 17.9609L41.8376 17.9609Z" fill="#D0D5DD"/>
<path d="M35.2861 2H35.3804V34H35.2861V2Z" fill="#D0D5DD"/>
<path d="M15.9144 2H16.0087V34H15.9144V2Z" fill="#D0D5DD"/>
<path d="M28.8289 2H28.9232V34H28.8289V2Z" fill="#D0D5DD"/>
<path d="M9.45721 2H9.55148V34H9.45721V2Z" fill="#D0D5DD"/>
<path d="M41.8376 28.6016L41.8376 28.6792L2.99998 28.6792L2.99998 28.6016L41.8376 28.6016Z" fill="#D0D5DD"/>
<path d="M41.8376 12.6406L41.8376 12.7183L2.99998 12.7183L2.99998 12.6406L41.8376 12.6406Z" fill="#D0D5DD"/>
<path d="M41.8376 23.2812L41.8376 23.3589L2.99998 23.3589L2.99998 23.2812L41.8376 23.2812Z" fill="#D0D5DD"/>
<path d="M41.8376 7.32031L41.8376 7.39798L2.99998 7.39798L2.99998 7.32031L41.8376 7.32031Z" fill="#D0D5DD"/>
<g filter="url(#filter1_dd_18_165)">
<ellipse cx="22.4188" cy="18" rx="9.7094" ry="8" fill="url(#paint1_linear_18_165)"/>
</g>
<g filter="url(#filter2_b_18_165)">
<path d="M3 18H41.8376V21.2C41.8376 25.6804 41.8376 27.9206 40.9657 29.6319C40.1987 31.1372 38.9748 32.3611 37.4695 33.1281C35.7582 34 33.518 34 29.0376 34H15.8C11.3196 34 9.07937 34 7.36808 33.1281C5.86278 32.3611 4.63893 31.1372 3.87195 29.6319C3 27.9206 3 25.6804 3 21.2V18Z" fill="white" fill-opacity="0.2"/>
</g>
</g>
<rect x="3.1" y="2.1" width="38.6376" height="31.8" rx="7.9" stroke="#D0D5DD" stroke-width="0.2"/>
</g>
<path d="M55.696 27V9.54545H58.8579V16.9347H66.946V9.54545H70.1164V27H66.946V19.5852H58.8579V27H55.696ZM73.5553 27V9.54545H80.1008C81.4417 9.54545 82.5667 9.77841 83.4758 10.2443C84.3906 10.7102 85.0809 11.3636 85.5468 12.2045C86.0184 13.0398 86.2542 14.0142 86.2542 15.1278C86.2542 16.2472 86.0156 17.2187 85.5383 18.0426C85.0667 18.8608 84.3707 19.4943 83.4502 19.9432C82.5298 20.3864 81.3991 20.608 80.0582 20.608H75.3962V17.983H79.632C80.4161 17.983 81.0582 17.875 81.5582 17.6591C82.0582 17.4375 82.4275 17.1165 82.6661 16.696C82.9104 16.2699 83.0326 15.7472 83.0326 15.1278C83.0326 14.5085 82.9104 13.9801 82.6661 13.5426C82.4218 13.0994 82.0496 12.7642 81.5496 12.5369C81.0496 12.304 80.4048 12.1875 79.615 12.1875H76.7173V27H73.5553ZM82.5724 19.0909L86.8934 27H83.365L79.1207 19.0909H82.5724ZM89.1647 9.54545H93.034L98.2158 22.1932H98.4204L103.602 9.54545H107.472V27H104.437V15.0085H104.276L99.4516 26.9489H97.1846L92.3607 14.983H92.1988V27H89.1647V9.54545ZM120.401 14.3438C120.321 13.5994 119.986 13.0199 119.395 12.6051C118.81 12.1903 118.048 11.983 117.111 11.983C116.452 11.983 115.886 12.0824 115.415 12.2812C114.943 12.4801 114.582 12.75 114.332 13.0909C114.082 13.4318 113.954 13.821 113.949 14.2585C113.949 14.6222 114.031 14.9375 114.196 15.2045C114.366 15.4716 114.597 15.6989 114.886 15.8864C115.176 16.0682 115.497 16.2216 115.849 16.3466C116.202 16.4716 116.557 16.5767 116.915 16.6619L118.551 17.071C119.21 17.2244 119.844 17.4318 120.452 17.6932C121.065 17.9545 121.614 18.2841 122.097 18.6818C122.585 19.0795 122.972 19.5597 123.256 20.1222C123.54 20.6847 123.682 21.3437 123.682 22.0994C123.682 23.1222 123.42 24.0227 122.898 24.8011C122.375 25.5739 121.619 26.179 120.631 26.6165C119.648 27.0483 118.457 27.2642 117.06 27.2642C115.702 27.2642 114.523 27.054 113.523 26.6335C112.528 26.2131 111.75 25.5994 111.187 24.7926C110.631 23.9858 110.329 23.0028 110.284 21.8438H113.395C113.44 22.4517 113.628 22.9574 113.957 23.3608C114.287 23.7642 114.716 24.0653 115.244 24.2642C115.778 24.4631 116.375 24.5625 117.034 24.5625C117.722 24.5625 118.324 24.4602 118.841 24.2557C119.364 24.0455 119.773 23.7557 120.068 23.3864C120.364 23.0114 120.514 22.5739 120.52 22.0739C120.514 21.6193 120.381 21.2443 120.119 20.9489C119.858 20.6477 119.491 20.3977 119.02 20.1989C118.554 19.9943 118.008 19.8125 117.383 19.6534L115.398 19.142C113.96 18.7727 112.824 18.2131 111.989 17.4631C111.159 16.7074 110.744 15.7045 110.744 14.4545C110.744 13.4261 111.023 12.5256 111.579 11.7528C112.142 10.9801 112.906 10.3807 113.872 9.95454C114.838 9.52273 115.932 9.30682 117.153 9.30682C118.392 9.30682 119.477 9.52273 120.409 9.95454C121.347 10.3807 122.082 10.9744 122.616 11.7358C123.151 12.4915 123.426 13.3608 123.443 14.3438H120.401Z" fill="black"/>
<defs>
<filter id="filter0_dd_18_165" x="0" y="0" width="44.8376" height="38" filterUnits="userSpaceOnUse" color-interpolation-filters="sRGB">
<feFlood flood-opacity="0" result="BackgroundImageFix"/>
<feColorMatrix in="SourceAlpha" type="matrix" values="0 0 0 0 0 0 0 0 0 0 0 0 0 0 0 0 0 0 127 0" result="hardAlpha"/>
<feOffset dy="1"/>
<feGaussianBlur stdDeviation="1"/>
<feColorMatrix type="matrix" values="0 0 0 0 0.0627451 0 0 0 0 0.0941176 0 0 0 0 0.156863 0 0 0 0.06 0"/>
<feBlend mode="normal" in2="BackgroundImageFix" result="effect1_dropShadow_18_165"/>
<feColorMatrix in="SourceAlpha" type="matrix" values="0 0 0 0 0 0 0 0 0 0 0 0 0 0 0 0 0 0 127 0" result="hardAlpha"/>
<feOffset dy="1"/>
<feGaussianBlur stdDeviation="1.5"/>
<feColorMatrix type="matrix" values="0 0 0 0 0.0627451 0 0 0 0 0.0941176 0 0 0 0 0.156863 0 0 0 0.1 0"/>
<feBlend mode="normal" in2="effect1_dropShadow_18_165" result="effect2_dropShadow_18_165"/>
<feBlend mode="normal" in="SourceGraphic" in2="effect2_dropShadow_18_165" result="shape"/>
</filter>
<filter id="filter1_dd_18_165" x="9.70941" y="8" width="25.4188" height="22" filterUnits="userSpaceOnUse" color-interpolation-filters="sRGB">
<feFlood flood-opacity="0" result="BackgroundImageFix"/>
<feColorMatrix in="SourceAlpha" type="matrix" values="0 0 0 0 0 0 0 0 0 0 0 0 0 0 0 0 0 0 127 0" result="hardAlpha"/>
<feOffset dy="1"/>
<feGaussianBlur stdDeviation="1"/>
<feColorMatrix type="matrix" values="0 0 0 0 0.0627451 0 0 0 0 0.0941176 0 0 0 0 0.156863 0 0 0 0.06 0"/>
<feBlend mode="normal" in2="BackgroundImageFix" result="effect1_dropShadow_18_165"/>
<feColorMatrix in="SourceAlpha" type="matrix" values="0 0 0 0 0 0 0 0 0 0 0 0 0 0 0 0 0 0 127 0" result="hardAlpha"/>
<feOffset dy="1"/>
<feGaussianBlur stdDeviation="1.5"/>
<feColorMatrix type="matrix" values="0 0 0 0 0.0627451 0 0 0 0 0.0941176 0 0 0 0 0.156863 0 0 0 0.1 0"/>
<feBlend mode="normal" in2="effect1_dropShadow_18_165" result="effect2_dropShadow_18_165"/>
<feBlend mode="normal" in="SourceGraphic" in2="effect2_dropShadow_18_165" result="shape"/>
</filter>
<filter id="filter2_b_18_165" x="-2" y="13" width="48.8376" height="26" filterUnits="userSpaceOnUse" color-interpolation-filters="sRGB">
<feFlood flood-opacity="0" result="BackgroundImageFix"/>
<feGaussianBlur in="BackgroundImageFix" stdDeviation="2.5"/>
<feComposite in2="SourceAlpha" operator="in" result="effect1_backgroundBlur_18_165"/>
<feBlend mode="normal" in="SourceGraphic" in2="effect1_backgroundBlur_18_165" result="shape"/>
</filter>
<linearGradient id="paint0_linear_18_165" x1="22.4188" y1="2" x2="22.4188" y2="34" gradientUnits="userSpaceOnUse">
<stop stop-color="white"/>
<stop offset="1" stop-color="#D0D5DD"/>
</linearGradient>
<linearGradient id="paint1_linear_18_165" x1="17.5641" y1="26" x2="24.608" y2="8.9019" gradientUnits="userSpaceOnUse">
<stop offset="0.320833" stop-color="#DB6A0D"/>
<stop offset="1" stop-color="#FE9C4C"/>
</linearGradient>
<clipPath id="clip0_18_165">
<rect x="3" y="2" width="38.8376" height="32" rx="8" fill="white"/>
</clipPath>
</defs>
</svg>
