<svg width="156" height="34" viewBox="0 0 156 34" fill="none" xmlns="http://www.w3.org/2000/svg">
<path d="M35.8288 15.8087C36.406 13.6354 38.6198 11.4014 40.7736 10.8189L54.2008 7.18776C56.3545 6.60533 57.6326 7.89502 57.0554 10.0684L53.457 23.6181C52.8799 25.7914 50.666 28.0254 48.5123 28.6079L35.0851 32.2391C32.9313 32.8215 31.6533 31.5318 32.2305 29.3584L35.8288 15.8087Z" fill="#16B364"/>
<path d="M30.4459 10.3766C31.0231 8.20326 33.2369 5.96925 35.3906 5.38681L48.8179 1.75563C50.9716 1.1732 52.2496 2.46289 51.6725 4.63625L48.0741 18.1859C47.4969 20.3593 45.2831 22.5933 43.1294 23.1757L29.7021 26.8069C27.5484 27.3894 26.2704 26.0997 26.8475 23.9263L30.4459 10.3766Z" fill="#087443"/>
<path d="M69.5318 22.2586H74.1505V24.0832H67.2913V10.2991H69.5318V22.2586Z" fill="#101828"/>
<path d="M75.2774 18.5696C75.2774 17.4721 75.5002 16.5003 75.9457 15.6541C76.4043 14.8078 77.0201 14.1534 77.7932 13.6906C78.5793 13.2146 79.4441 12.9766 80.3875 12.9766C81.2392 12.9766 81.9795 13.1485 82.6084 13.4922C83.2505 13.8228 83.7615 14.2393 84.1414 14.7417V13.1551H86.4017V24.0832H84.1414V22.4569C83.7615 22.9726 83.2439 23.4023 82.5888 23.7461C81.9336 24.0898 81.1868 24.2617 80.3482 24.2617C79.4179 24.2617 78.5662 24.0237 77.7932 23.5477C77.0201 23.0585 76.4043 22.3842 75.9457 21.5247C75.5002 20.6521 75.2774 19.667 75.2774 18.5696ZM84.1414 18.6092C84.1414 17.8556 83.9842 17.2011 83.6697 16.6457C83.3684 16.0904 82.9687 15.6673 82.4708 15.3764C81.9729 15.0855 81.4357 14.9401 80.8592 14.9401C80.2827 14.9401 79.7455 15.0855 79.2476 15.3764C78.7497 15.6541 78.3435 16.0706 78.029 16.6259C77.7276 17.168 77.577 17.8159 77.577 18.5696C77.577 19.3232 77.7276 19.9844 78.029 20.5529C78.3435 21.1215 78.7497 21.5578 79.2476 21.8619C79.7586 22.1528 80.2958 22.2982 80.8592 22.2982C81.4357 22.2982 81.9729 22.1528 82.4708 21.8619C82.9687 21.571 83.3684 21.1479 83.6697 20.5926C83.9842 20.024 84.1414 19.3629 84.1414 18.6092Z" fill="#101828"/>
<path d="M99.093 13.1551L92.4499 29.2201H90.1307L92.332 23.9047L88.067 13.1551H90.5631L93.6095 21.4851L96.7738 13.1551H99.093Z" fill="#101828"/>
<path d="M110.709 18.3514C110.709 18.7613 110.683 19.1315 110.631 19.4621H102.356C102.422 20.3347 102.743 21.0355 103.319 21.5644C103.896 22.0933 104.603 22.3577 105.442 22.3577C106.647 22.3577 107.499 21.8487 107.997 20.8306H110.414C110.087 21.8355 109.491 22.6618 108.626 23.3097C107.774 23.9444 106.713 24.2617 105.442 24.2617C104.407 24.2617 103.476 24.0303 102.651 23.5676C101.839 23.0916 101.197 22.4305 100.725 21.5842C100.266 20.7248 100.037 19.7331 100.037 18.6092C100.037 17.4853 100.26 16.5003 100.705 15.6541C101.164 14.7946 101.799 14.1335 102.612 13.6707C103.437 13.208 104.381 12.9766 105.442 12.9766C106.464 12.9766 107.375 13.2014 108.174 13.6509C108.973 14.1005 109.595 14.7351 110.041 15.5549C110.486 16.3615 110.709 17.2936 110.709 18.3514ZM108.37 17.6374C108.357 16.8044 108.062 16.1367 107.486 15.6342C106.909 15.1318 106.195 14.8806 105.344 14.8806C104.571 14.8806 103.909 15.1318 103.359 15.6342C102.808 16.1235 102.481 16.7912 102.376 17.6374H108.37Z" fill="#101828"/>
<path d="M115.155 14.7417C115.482 14.1864 115.915 13.7567 116.452 13.4526C117.002 13.1352 117.651 12.9766 118.398 12.9766V15.3169H117.828C116.95 15.3169 116.282 15.5417 115.823 15.9912C115.377 16.4408 115.155 17.2209 115.155 18.3316V24.0832H112.914V13.1551H115.155V14.7417Z" fill="#101828"/>
<path d="M124.388 24.2617C123.536 24.2617 122.77 24.1097 122.088 23.8056C121.42 23.4882 120.89 23.0651 120.496 22.5362C120.103 21.9941 119.894 21.3925 119.868 20.7314H122.187C122.226 21.1942 122.442 21.5842 122.835 21.9016C123.242 22.2057 123.746 22.3577 124.349 22.3577C124.978 22.3577 125.462 22.2387 125.803 22.0007C126.157 21.7495 126.334 21.4322 126.334 21.0487C126.334 20.6388 126.137 20.3347 125.744 20.1364C125.364 19.9381 124.755 19.7199 123.916 19.4819C123.104 19.2571 122.442 19.039 121.931 18.8274C121.42 18.6158 120.975 18.2919 120.595 17.8556C120.228 17.4192 120.044 16.8441 120.044 16.1301C120.044 15.5483 120.215 15.0194 120.555 14.5434C120.896 14.0542 121.381 13.6707 122.01 13.3931C122.652 13.1154 123.386 12.9766 124.211 12.9766C125.443 12.9766 126.432 13.2939 127.179 13.9286C127.939 14.55 128.345 15.4028 128.397 16.4871H126.157C126.118 15.9978 125.921 15.6078 125.567 15.3169C125.213 15.026 124.735 14.8806 124.132 14.8806C123.543 14.8806 123.091 14.993 122.776 15.2177C122.462 15.4425 122.305 15.74 122.305 16.1102C122.305 16.4011 122.409 16.6457 122.619 16.8441C122.829 17.0424 123.084 17.2011 123.386 17.3201C123.687 17.4258 124.132 17.5647 124.722 17.7366C125.508 17.9481 126.15 18.1663 126.648 18.3911C127.159 18.6026 127.598 18.92 127.965 19.3431C128.332 19.7662 128.522 20.3281 128.535 21.0289C128.535 21.6503 128.365 22.2057 128.024 22.6949C127.683 23.1841 127.199 23.5676 126.57 23.8452C125.954 24.1229 125.227 24.2617 124.388 24.2617Z" fill="#101828"/>
</svg>
