<svg width="156" height="34" viewBox="0 0 156 34" fill="none" xmlns="http://www.w3.org/2000/svg">
<path fill-rule="evenodd" clip-rule="evenodd" d="M27.5618 25.8306C32.3947 25.8306 36.3125 21.8771 36.3125 17.0001C36.3125 12.1231 32.3947 8.16953 27.5618 8.16953C22.7289 8.16953 18.811 12.1231 18.811 17.0001C18.811 21.8771 22.7289 25.8306 27.5618 25.8306ZM27.5618 32.5834C36.0904 32.5834 43.0043 25.6065 43.0043 17.0001C43.0043 8.39364 36.0904 1.41675 27.5618 1.41675C19.0331 1.41675 12.1193 8.39364 12.1193 17.0001C12.1193 25.6065 19.0331 32.5834 27.5618 32.5834Z" fill="#6938EF"/>
<path d="M27.7384 17.3413C29.3466 15.7184 31.954 15.7184 33.5621 17.3413L41.5698 25.4219C43.178 27.0448 43.178 29.6759 41.5698 31.2988C39.9616 32.9216 37.3542 32.9216 35.746 31.2988L27.7384 23.2181C26.1302 21.5953 26.1302 18.9641 27.7384 17.3413Z" fill="#F670C7"/>
<path d="M29.9869 25.4871L35.0727 30.6193C37.512 29.2464 39.5443 27.2255 40.9409 24.7873L35.8969 19.6973C35.0109 22.4877 32.787 24.6739 29.9869 25.4871Z" fill="#6519BA"/>
<path d="M67.9369 25.5709C67.4914 26.1263 66.9477 26.5494 66.3056 26.8403C65.6767 27.1312 64.9823 27.2766 64.2223 27.2766C63.2003 27.2766 62.2765 27.0518 61.4511 26.6023C60.6256 26.1659 59.6822 25.3858 58.6209 24.2619C57.3761 24.1033 56.2624 23.7 55.2797 23.0521C54.3101 22.4042 53.5501 21.5712 52.9998 20.5531C52.4626 19.5218 52.194 18.3847 52.194 17.1418C52.194 15.7799 52.515 14.5568 53.157 13.4726C53.8122 12.3752 54.7097 11.5157 55.8496 10.8943C57.0027 10.2728 58.2933 9.96211 59.7215 9.96211C61.1497 9.96211 62.4338 10.2728 63.5737 10.8943C64.7136 11.5157 65.6112 12.3752 66.2663 13.4726C66.9215 14.5568 67.249 15.7799 67.249 17.1418C67.249 18.7549 66.797 20.1697 65.8929 21.3861C65.0019 22.6026 63.8161 23.4488 62.3355 23.9248C62.6631 24.2686 62.9775 24.5132 63.2789 24.6586C63.5934 24.8173 63.9275 24.8966 64.2813 24.8966C65.1329 24.8966 65.8798 24.5528 66.5218 23.8653L67.9369 25.5709ZM55.4172 17.1418C55.4172 18.0012 55.6007 18.7681 55.9676 19.4424C56.3475 20.1168 56.8651 20.6457 57.5202 21.0291C58.1754 21.3993 58.9091 21.5844 59.7215 21.5844C60.5339 21.5844 61.2676 21.3993 61.9228 21.0291C62.5779 20.6457 63.0889 20.1168 63.4558 19.4424C63.8358 18.7681 64.0258 18.0012 64.0258 17.1418C64.0258 16.2823 63.8358 15.5154 63.4558 14.8411C63.0889 14.1668 62.5779 13.6445 61.9228 13.2743C61.2676 12.8908 60.5339 12.6991 59.7215 12.6991C58.9091 12.6991 58.1754 12.8908 57.5202 13.2743C56.8651 13.6445 56.3475 14.1668 55.9676 14.8411C55.6007 15.5154 55.4172 16.2823 55.4172 17.1418Z" fill="#101828"/>
<path d="M80.0783 13.4131V24.0834H77.1694V22.8141C76.7633 23.2769 76.2785 23.6339 75.715 23.8851C75.1516 24.1231 74.5423 24.2421 73.8872 24.2421C72.4983 24.2421 71.3977 23.8388 70.5853 23.0323C69.7729 22.2257 69.3668 21.0291 69.3668 19.4424V13.4131H72.4328V18.9863C72.4328 20.7052 73.1469 21.5646 74.5751 21.5646C75.3089 21.5646 75.8985 21.3266 76.344 20.8506C76.7895 20.3614 77.0122 19.6408 77.0122 18.6888V13.4131H80.0783Z" fill="#101828"/>
<path d="M87.9502 24.2421C86.8365 24.2421 85.8341 24.0107 84.9431 23.5479C84.0652 23.0719 83.3773 22.4174 82.8794 21.5844C82.3815 20.7514 82.1326 19.8061 82.1326 18.7483C82.1326 17.6905 82.3815 16.7451 82.8794 15.9121C83.3773 15.0791 84.0652 14.4312 84.9431 13.9684C85.8341 13.4924 86.8365 13.2544 87.9502 13.2544C89.0639 13.2544 90.0597 13.4924 90.9376 13.9684C91.8155 14.4312 92.5034 15.0791 93.0013 15.9121C93.4992 16.7451 93.7481 17.6905 93.7481 18.7483C93.7481 19.8061 93.4992 20.7514 93.0013 21.5844C92.5034 22.4174 91.8155 23.0719 90.9376 23.5479C90.0597 24.0107 89.0639 24.2421 87.9502 24.2421ZM87.9502 21.7034C88.7364 21.7034 89.3784 21.439 89.8763 20.9101C90.3873 20.368 90.6428 19.6474 90.6428 18.7483C90.6428 17.8492 90.3873 17.1352 89.8763 16.6063C89.3784 16.0642 88.7364 15.7931 87.9502 15.7931C87.164 15.7931 86.5154 16.0642 86.0044 16.6063C85.4934 17.1352 85.2379 17.8492 85.2379 18.7483C85.2379 19.6474 85.4934 20.368 86.0044 20.9101C86.5154 21.439 87.164 21.7034 87.9502 21.7034Z" fill="#101828"/>
<path d="M102.618 23.5678C102.316 23.7926 101.943 23.9644 101.497 24.0834C101.065 24.1892 100.606 24.2421 100.121 24.2421C98.8636 24.2421 97.8874 23.9182 97.193 23.2703C96.5116 22.6224 96.171 21.6704 96.171 20.4143V16.0311H94.5397V13.6511H96.171V11.0529H99.237V13.6511H101.871V16.0311H99.237V20.3746C99.237 20.8242 99.3484 21.1746 99.5711 21.4258C99.807 21.6638 100.135 21.7828 100.554 21.7828C101.039 21.7828 101.451 21.6506 101.792 21.3861L102.618 23.5678Z" fill="#101828"/>
<path d="M104.339 13.4131H107.405V24.0834H104.339V13.4131ZM105.872 11.9256C105.308 11.9256 104.85 11.7603 104.496 11.4298C104.142 11.0992 103.965 10.6893 103.965 10.2001C103.965 9.71089 104.142 9.301 104.496 8.97044C104.85 8.63989 105.308 8.47461 105.872 8.47461C106.435 8.47461 106.894 8.63328 107.247 8.95061C107.601 9.26794 107.778 9.66461 107.778 10.1406C107.778 10.6563 107.601 11.086 107.247 11.4298C106.894 11.7603 106.435 11.9256 105.872 11.9256Z" fill="#101828"/>
<path d="M120.608 18.7879C120.608 18.8276 120.588 19.1053 120.549 19.6209H112.55C112.694 20.2821 113.035 20.8043 113.572 21.1878C114.109 21.5712 114.777 21.7629 115.577 21.7629C116.127 21.7629 116.612 21.6836 117.031 21.5249C117.463 21.3531 117.863 21.0886 118.23 20.7316L119.861 22.5166C118.865 23.6669 117.411 24.2421 115.498 24.2421C114.306 24.2421 113.251 24.0107 112.334 23.5479C111.416 23.0719 110.709 22.4174 110.211 21.5844C109.713 20.7514 109.464 19.8061 109.464 18.7483C109.464 17.7037 109.706 16.7649 110.191 15.9319C110.689 15.0857 111.364 14.4312 112.216 13.9684C113.08 13.4924 114.043 13.2544 115.105 13.2544C116.14 13.2544 117.077 13.4792 117.915 13.9288C118.754 14.3783 119.409 15.0262 119.881 15.8724C120.366 16.7054 120.608 17.6773 120.608 18.7879ZM115.124 15.5948C114.43 15.5948 113.847 15.7931 113.375 16.1898C112.904 16.5864 112.615 17.1286 112.51 17.8161H117.719C117.614 17.1418 117.326 16.6063 116.854 16.2096C116.382 15.7997 115.806 15.5948 115.124 15.5948Z" fill="#101828"/>
<path d="M129.076 13.2544C130.386 13.2544 131.441 13.6511 132.24 14.4444C133.053 15.2378 133.459 16.4146 133.459 17.9748V24.0834H130.393V18.4508C130.393 17.6046 130.21 16.9765 129.843 16.5666C129.476 16.1435 128.945 15.9319 128.251 15.9319C127.478 15.9319 126.862 16.1766 126.403 16.6658C125.945 17.1418 125.715 17.8558 125.715 18.8078V24.0834H122.649V13.4131H125.578V14.6626C125.984 14.2131 126.488 13.8693 127.091 13.6313C127.694 13.3801 128.355 13.2544 129.076 13.2544Z" fill="#101828"/>
<path d="M143.058 23.5678C142.757 23.7926 142.383 23.9644 141.938 24.0834C141.506 24.1892 141.047 24.2421 140.562 24.2421C139.304 24.2421 138.328 23.9182 137.634 23.2703C136.952 22.6224 136.612 21.6704 136.612 20.4143V16.0311H134.98V13.6511H136.612V11.0529H139.678V13.6511H142.311V16.0311H139.678V20.3746C139.678 20.8242 139.789 21.1746 140.012 21.4258C140.248 21.6638 140.575 21.7828 140.994 21.7828C141.479 21.7828 141.892 21.6506 142.233 21.3861L143.058 23.5678Z" fill="#101828"/>
</svg>
