<svg width="156" height="34" viewBox="0 0 156 34" fill="none" xmlns="http://www.w3.org/2000/svg">
<rect x="18.9366" y="13.6001" width="6.73855" height="6.79999" fill="#039855"/>
<rect x="39.1523" y="20.3999" width="6.73855" height="6.79999" transform="rotate(180 39.1523 20.3999)" fill="#027A48"/>
<path d="M25.6752 13.6L32.4137 6.80005V13.6L25.6752 20.4V13.6Z" fill="#A6F4C5"/>
<path d="M32.4137 20.4L25.6752 27.2L25.6752 20.4L32.4137 13.6L32.4137 20.4Z" fill="#6CE9A6"/>
<path d="M18.9366 13.6L32.4137 0V6.79999L25.6752 13.6H18.9366Z" fill="#32D583"/>
<path d="M39.1523 20.4L25.6752 34L25.6752 27.2L32.4138 20.4L39.1523 20.4Z" fill="#12B76A"/>
<path d="M53.8283 24.2816C52.767 24.2816 51.7385 24.1296 50.7426 23.8255C49.7599 23.5214 48.9803 23.1181 48.4038 22.6156L49.2882 20.6125C49.8517 21.062 50.5396 21.4323 51.3519 21.7231C52.1774 22.0008 53.0029 22.1396 53.8283 22.1396C54.8504 22.1396 55.6103 21.9744 56.1082 21.6438C56.6192 21.3133 56.8747 20.8769 56.8747 20.3348C56.8747 19.9381 56.7306 19.6142 56.4423 19.363C56.1672 19.0985 55.8134 18.8936 55.381 18.7481C54.9486 18.6027 54.359 18.4374 53.6122 18.2523C52.5639 18.0011 51.7123 17.7499 51.0571 17.4986C50.4151 17.2474 49.8582 16.8574 49.3865 16.3285C48.9279 15.7864 48.6986 15.0591 48.6986 14.1468C48.6986 13.3799 48.9017 12.6858 49.3079 12.0643C49.7272 11.4296 50.3496 10.9272 51.175 10.557C52.0136 10.1868 53.0356 10.0016 54.2411 10.0016C55.0797 10.0016 55.9051 10.1074 56.7175 10.319C57.5299 10.5305 58.2309 10.8346 58.8205 11.2313L58.0147 13.2345C57.4119 12.8775 56.783 12.6064 56.1279 12.4213C55.4727 12.2362 54.8373 12.1436 54.2214 12.1436C53.2125 12.1436 52.4591 12.3155 51.9612 12.6593C51.4764 13.0031 51.234 13.4593 51.234 14.0278C51.234 14.4245 51.3716 14.7484 51.6467 14.9996C51.935 15.2509 52.2953 15.4492 52.7277 15.5946C53.1601 15.7401 53.7497 15.9054 54.4966 16.0905C55.5186 16.3285 56.3572 16.5797 57.0123 16.8441C57.6674 17.0954 58.2243 17.4854 58.6829 18.0143C59.1546 18.5432 59.3905 19.2572 59.3905 20.1563C59.3905 20.9232 59.1808 21.6174 58.7615 22.2388C58.3553 22.8603 57.733 23.3561 56.8944 23.7263C56.0558 24.0965 55.0338 24.2816 53.8283 24.2816Z" fill="#101828"/>
<path d="M61.6882 13.4923H64.1449V24.0833H61.6882V13.4923ZM62.9264 11.747C62.4809 11.747 62.1074 11.6081 61.8061 11.3305C61.5047 11.0396 61.354 10.6826 61.354 10.2595C61.354 9.83636 61.5047 9.48597 61.8061 9.20831C62.1074 8.91742 62.4809 8.77197 62.9264 8.77197C63.3719 8.77197 63.7453 8.91081 64.0466 9.18847C64.348 9.45292 64.4987 9.79008 64.4987 10.2C64.4987 10.6363 64.348 11.0065 64.0466 11.3106C63.7584 11.6015 63.385 11.747 62.9264 11.747Z" fill="#101828"/>
<path d="M70.6124 24.2221C69.7607 24.2221 68.9286 24.1098 68.1163 23.885C67.3039 23.6602 66.6553 23.3759 66.1705 23.0321L67.1139 21.148C67.5856 21.4653 68.149 21.7231 68.8042 21.9215C69.4724 22.1066 70.1275 22.1991 70.7696 22.1991C72.2371 22.1991 72.9708 21.8091 72.9708 21.029C72.9708 20.6588 72.7809 20.4009 72.4009 20.2555C72.034 20.11 71.4378 19.9712 70.6124 19.839C69.7476 19.7068 69.04 19.5547 68.4897 19.3828C67.9525 19.2109 67.4808 18.9134 67.0746 18.4903C66.6815 18.054 66.485 17.4524 66.485 16.6855C66.485 15.6806 66.8977 14.8806 67.7232 14.2856C68.5618 13.6774 69.6886 13.3733 71.1037 13.3733C71.8244 13.3733 72.545 13.4593 73.2657 13.6311C73.9863 13.7898 74.5759 14.008 75.0345 14.2856L74.0911 16.1698C73.2001 15.6409 72.1978 15.3765 71.084 15.3765C70.3634 15.3765 69.8131 15.4889 69.4331 15.7136C69.0662 15.9252 68.8828 16.2095 68.8828 16.5665C68.8828 16.9631 69.0793 17.2474 69.4724 17.4193C69.8786 17.578 70.501 17.73 71.3396 17.8755C72.1781 18.0077 72.866 18.1598 73.4032 18.3316C73.9404 18.5035 74.399 18.7944 74.779 19.2043C75.1721 19.6142 75.3686 20.196 75.3686 20.9496C75.3686 21.9413 74.9428 22.7346 74.0911 23.3296C73.2395 23.9246 72.0799 24.2221 70.6124 24.2221Z" fill="#101828"/>
<path d="M87.1195 13.4923L82.206 24.9361C81.7474 26.0865 81.1905 26.893 80.5354 27.3558C79.8802 27.8318 79.0875 28.0698 78.1572 28.0698C77.6331 28.0698 77.1156 27.9839 76.6046 27.812C76.0935 27.6401 75.6743 27.4021 75.3467 27.098L76.3294 25.2733C76.5652 25.4981 76.8404 25.6766 77.1549 25.8088C77.4824 25.941 77.81 26.0071 78.1376 26.0071C78.57 26.0071 78.9237 25.8948 79.1989 25.67C79.4872 25.4452 79.7492 25.0684 79.9851 24.5395L80.1619 24.123L75.5825 13.4923H78.1376L81.4395 21.3265L84.761 13.4923H87.1195Z" fill="#101828"/>
<path d="M94.4726 13.3733C95.4946 13.3733 96.4053 13.5981 97.2045 14.0476C98.0169 14.4972 98.6524 15.1319 99.111 15.9516C99.5696 16.7714 99.7989 17.7168 99.7989 18.7878C99.7989 19.8588 99.5696 20.8108 99.111 21.6438C98.6524 22.4636 98.0169 23.0983 97.2045 23.5478C96.4053 23.9974 95.4946 24.2221 94.4726 24.2221C93.0575 24.2221 91.9372 23.7461 91.1118 22.7941V27.931H88.655V13.4923H90.9938V14.8806C91.4 14.3782 91.8979 14.0014 92.4875 13.7501C93.0903 13.4989 93.7519 13.3733 94.4726 13.3733ZM94.1974 22.1C95.1015 22.1 95.8418 21.7959 96.4184 21.1876C97.008 20.5794 97.3028 19.7795 97.3028 18.7878C97.3028 17.7961 97.008 16.9962 96.4184 16.388C95.8418 15.7798 95.1015 15.4756 94.1974 15.4756C93.6078 15.4756 93.0772 15.6145 92.6055 15.8921C92.1338 16.1566 91.7603 16.54 91.4852 17.0425C91.21 17.5449 91.0724 18.1267 91.0724 18.7878C91.0724 19.4489 91.21 20.0307 91.4852 20.5331C91.7603 21.0356 92.1338 21.4256 92.6055 21.7033C93.0772 21.9678 93.6078 22.1 94.1974 22.1Z" fill="#101828"/>
<path d="M108.084 13.3733C109.407 13.3733 110.469 13.7634 111.268 14.5435C112.067 15.3236 112.467 16.4805 112.467 18.0143V24.0833H110.01V18.3316C110.01 17.4061 109.794 16.7119 109.362 16.2491C108.929 15.7731 108.313 15.5351 107.514 15.5351C106.61 15.5351 105.896 15.8128 105.372 16.3681C104.848 16.9103 104.586 17.697 104.586 18.7283V24.0833H102.129V9.36697H104.586V14.722C104.992 14.2856 105.49 13.9551 106.079 13.7303C106.682 13.4923 107.35 13.3733 108.084 13.3733Z" fill="#101828"/>
<path d="M125.745 13.4923V24.0833H123.406V22.7346C123.013 23.2106 122.521 23.5809 121.932 23.8453C121.342 24.0965 120.707 24.2221 120.025 24.2221C118.623 24.2221 117.516 23.8321 116.704 23.052C115.904 22.2586 115.505 21.0885 115.505 19.5415V13.4923H117.962V19.2043C117.962 20.1563 118.171 20.8703 118.591 21.3463C119.023 21.8091 119.632 22.0405 120.418 22.0405C121.296 22.0405 121.991 21.7694 122.502 21.2273C123.026 20.672 123.288 19.8786 123.288 18.8473V13.4923H125.745Z" fill="#101828"/>
<path d="M132.204 24.2221C131.353 24.2221 130.521 24.1098 129.708 23.885C128.896 23.6602 128.247 23.3759 127.762 23.0321L128.706 21.148C129.177 21.4653 129.741 21.7231 130.396 21.9215C131.064 22.1066 131.719 22.1991 132.361 22.1991C133.829 22.1991 134.563 21.8091 134.563 21.029C134.563 20.6588 134.373 20.4009 133.993 20.2555C133.626 20.11 133.03 19.9712 132.204 19.839C131.339 19.7068 130.632 19.5547 130.082 19.3828C129.544 19.2109 129.073 18.9134 128.666 18.4903C128.273 18.054 128.077 17.4524 128.077 16.6855C128.077 15.6806 128.49 14.8806 129.315 14.2856C130.154 13.6774 131.28 13.3733 132.696 13.3733C133.416 13.3733 134.137 13.4593 134.858 13.6311C135.578 13.7898 136.168 14.008 136.626 14.2856L135.683 16.1698C134.792 15.6409 133.79 15.3765 132.676 15.3765C131.955 15.3765 131.405 15.4889 131.025 15.7136C130.658 15.9252 130.475 16.2095 130.475 16.5665C130.475 16.9631 130.671 17.2474 131.064 17.4193C131.47 17.578 132.093 17.73 132.931 17.8755C133.77 18.0077 134.458 18.1598 134.995 18.3316C135.532 18.5035 135.991 18.7944 136.371 19.2043C136.764 19.6142 136.961 20.196 136.961 20.9496C136.961 21.9413 136.535 22.7346 135.683 23.3296C134.831 23.9246 133.672 24.2221 132.204 24.2221Z" fill="#101828"/>
</svg>
